<?xml version="1.0" standalone="no"?>
<!DOCTYPE svg PUBLIC "-//W3C//DTD SVG 20010904//EN"
 "http://www.w3.org/TR/2001/REC-SVG-20010904/DTD/svg10.dtd">
<svg version="1.0" xmlns="http://www.w3.org/2000/svg"
 width="441.000000pt" height="441.000000pt" viewBox="0 0 441.000000 441.000000"
 preserveAspectRatio="xMidYMid meet">
<metadata>
Created by potrace 1.14, written by Peter Selinger 2001-2017
</metadata>
<g transform="translate(0.000000,441.000000) scale(0.100000,-0.100000)"
fill="#000000" stroke="none">
<path d="M1990 4399 c-30 -4 -77 -10 -105 -14 -237 -30 -547 -136 -763 -261
-125 -73 -143 -85 -227 -147 -322 -241 -555 -536 -723 -917 -55 -123 -131
-393 -146 -520 -4 -25 -9 -72 -14 -105 -14 -115 -5 -525 13 -555 2 -3 6 -27 9
-55 16 -121 77 -325 144 -485 127 -303 366 -624 612 -825 25 -20 55 -45 67
-55 35 -30 202 -140 212 -140 5 0 11 -4 13 -9 5 -15 309 -158 403 -189 106
-36 228 -69 287 -77 24 -4 45 -8 48 -10 3 -2 33 -7 65 -10 33 -4 79 -10 103
-15 47 -8 433 -6 471 4 12 3 42 8 65 10 283 35 631 169 907 352 70 45 133 89
140 96 8 7 32 28 54 47 350 296 602 697 715 1141 26 102 24 92 46 226 25 156
24 556 -1 654 -3 8 -7 31 -10 50 -40 258 -165 573 -322 815 -119 182 -211 288
-398 460 -160 147 -460 326 -675 403 -194 70 -282 91 -517 128 -54 8 -418 11
-473 3z"/>
</g>
</svg>
